<svg xmlns="http://www.w3.org/2000/svg" viewBox="-10.0 -25.0 1420.0 1067.0" width="1420.0px" height="1067.0px">
<rect x="-10.0" y="-25.0" width="1420.0" height="1067.0" fill="#ffffff"/>
<rect x="520.0" y="15.0" width="360.0" height="75.0" rx="11.2" ry="11.2" fill="rgba(254,215,170,1.0)" stroke="#c2410c" stroke-width="2" stroke-linejoin="round"/>
<rect x="580.0" y="42.0" width="240.0" height="40.0" rx="6.0" ry="6.0" fill="rgba(255,237,213,1.0)" stroke="#c2410c" stroke-width="2" stroke-linejoin="round"/>
<rect x="200.0" y="115.0" width="1000.0" height="75.0" rx="11.2" ry="11.2" fill="rgba(219,234,254,1.0)" stroke="#1e40af" stroke-width="2" stroke-linejoin="round"/>
<rect x="350.0" y="135.0" width="220.0" height="40.0" rx="6.0" ry="6.0" fill="rgba(239,246,255,1.0)" stroke="#1e40af" stroke-width="2" stroke-linejoin="round"/>
<rect x="830.0" y="135.0" width="220.0" height="40.0" rx="6.0" ry="6.0" fill="rgba(239,246,255,1.0)" stroke="#1e40af" stroke-width="2" stroke-linejoin="round"/>
<rect x="450.0" y="215.0" width="500.0" height="65.0" rx="9.8" ry="9.8" fill="rgba(224,231,255,1.0)" stroke="#4338ca" stroke-width="2" stroke-linejoin="round"/>
<rect x="550.0" y="233.0" width="200.0" height="35.0" rx="5.2" ry="5.2" fill="rgba(238,242,255,1.0)" stroke="#4338ca" stroke-width="2" stroke-linejoin="round"/>
<rect x="30.0" y="305.0" width="1340.0" height="280.0" rx="42.0" ry="42.0" fill="rgba(254,226,226,1.0)" stroke="#dc2626" stroke-width="2" stroke-linejoin="round"/>
<rect x="146.0" y="340.0" width="190.0" height="65.0" rx="9.8" ry="9.8" fill="rgba(255,241,242,1.0)" stroke="#dc2626" stroke-width="2" stroke-linejoin="round"/>
<rect x="452.0" y="340.0" width="190.0" height="65.0" rx="9.8" ry="9.8" fill="rgba(255,241,242,1.0)" stroke="#dc2626" stroke-width="2" stroke-linejoin="round"/>
<rect x="758.0" y="340.0" width="190.0" height="65.0" rx="9.8" ry="9.8" fill="rgba(255,241,242,1.0)" stroke="#dc2626" stroke-width="2" stroke-linejoin="round"/>
<rect x="1064.0" y="340.0" width="190.0" height="65.0" rx="9.8" ry="9.8" fill="rgba(255,241,242,1.0)" stroke="#dc2626" stroke-width="2" stroke-linejoin="round"/>
<rect x="146.0" y="488.0" width="190.0" height="65.0" rx="9.8" ry="9.8" fill="rgba(255,241,242,1.0)" stroke="#dc2626" stroke-width="2" stroke-linejoin="round"/>
<rect x="452.0" y="488.0" width="190.0" height="65.0" rx="9.8" ry="9.8" fill="rgba(255,241,242,1.0)" stroke="#dc2626" stroke-width="2" stroke-linejoin="round"/>
<rect x="758.0" y="488.0" width="190.0" height="65.0" rx="9.8" ry="9.8" fill="rgba(255,241,242,1.0)" stroke="#dc2626" stroke-width="2" stroke-linejoin="round"/>
<rect x="1064.0" y="488.0" width="190.0" height="65.0" rx="9.8" ry="9.8" fill="rgba(255,241,242,1.0)" stroke="#dc2626" stroke-width="2" stroke-linejoin="round"/>
<rect x="450.0" y="615.0" width="500.0" height="80.0" rx="12.0" ry="12.0" fill="rgba(221,214,254,1.0)" stroke="#6d28d9" stroke-width="2" stroke-linejoin="round"/>
<rect x="530.0" y="638.0" width="240.0" height="45.0" rx="6.8" ry="6.8" fill="rgba(237,233,254,1.0)" stroke="#6d28d9" stroke-width="2" stroke-linejoin="round"/>
<rect x="30.0" y="725.0" width="1340.0" height="80.0" rx="12.0" ry="12.0" fill="rgba(254,243,199,1.0)" stroke="#b45309" stroke-width="2" stroke-linejoin="round"/>
<rect x="160.0" y="748.0" width="280.0" height="42.0" rx="6.3" ry="6.3" fill="rgba(255,251,235,1.0)" stroke="#b45309" stroke-width="2" stroke-linejoin="round"/>
<rect x="540.0" y="748.0" width="280.0" height="42.0" rx="6.3" ry="6.3" fill="rgba(255,251,235,1.0)" stroke="#b45309" stroke-width="2" stroke-linejoin="round"/>
<rect x="920.0" y="748.0" width="280.0" height="42.0" rx="6.3" ry="6.3" fill="rgba(255,251,235,1.0)" stroke="#b45309" stroke-width="2" stroke-linejoin="round"/>
<rect x="300.0" y="840.0" width="440.0" height="155.0" rx="23.2" ry="23.2" fill="rgba(167,243,208,1.0)" stroke="#047857" stroke-width="2" stroke-linejoin="round"/>
<rect x="420.0" y="862.0" width="200.0" height="36.0" rx="5.4" ry="5.4" fill="rgba(209,250,229,1.0)" stroke="#047857" stroke-width="2" stroke-linejoin="round"/>
<rect x="420.0" y="914.0" width="200.0" height="36.0" rx="5.4" ry="5.4" fill="rgba(209,250,229,1.0)" stroke="#047857" stroke-width="2" stroke-linejoin="round"/>
<rect x="420.0" y="966.0" width="200.0" height="36.0" rx="5.4" ry="5.4" fill="rgba(209,250,229,1.0)" stroke="#047857" stroke-width="2" stroke-linejoin="round"/>
<text x="530.0" y="38.0" font-family="'Cascadia', 'Noto Sans SC', 'Microsoft YaHei', sans-serif" font-size="16px" fill="#c2410c" text-anchor="start"><tspan x="530.0" dy="0.0">📥 输入层</tspan></text>
<text x="700.0" y="59.0" font-family="'Cascadia', 'Noto Sans SC', 'Microsoft YaHei', sans-serif" font-size="12px" fill="#c2410c" text-anchor="middle"><tspan x="700.0" dy="0.0">📄 店小秘 Excel</tspan><tspan x="700.0" dy="15.0">~43 列产品数据</tspan></text>
<text x="210.0" y="138.0" font-family="'Cascadia', 'Noto Sans SC', 'Microsoft YaHei', sans-serif" font-size="16px" fill="#1e40af" text-anchor="start"><tspan x="210.0" dy="0.0">🚪 入口层</tspan></text>
<text x="460.0" y="152.0" font-family="'Cascadia', 'Noto Sans SC', 'Microsoft YaHei', sans-serif" font-size="12px" fill="#1e40af" text-anchor="middle"><tspan x="460.0" dy="0.0">🌐 Web 模式</tspan><tspan x="460.0" dy="15.0">Flask app.py</tspan></text>
<text x="940.0" y="152.0" font-family="'Cascadia', 'Noto Sans SC', 'Microsoft YaHei', sans-serif" font-size="12px" fill="#1e40af" text-anchor="middle"><tspan x="940.0" dy="0.0">📦 批量模式</tspan><tspan x="940.0" dy="15.0">--batch 参数</tspan></text>
<text x="460.0" y="238.0" font-family="'Cascadia', 'Noto Sans SC', 'Microsoft YaHei', sans-serif" font-size="16px" fill="#4338ca" text-anchor="start"><tspan x="460.0" dy="0.0">📖 规则层</tspan></text>
<text x="650.0" y="248.2" font-family="'Cascadia', 'Noto Sans SC', 'Microsoft YaHei', sans-serif" font-size="11px" fill="#4338ca" text-anchor="middle"><tspan x="650.0" dy="0.0">📖 RuleIndex</tspan><tspan x="650.0" dy="13.8">26 Clippings/*.md</tspan></text>
<text x="40.0" y="328.0" font-family="'Cascadia', 'Noto Sans SC', 'Microsoft YaHei', sans-serif" font-size="16px" fill="#dc2626" text-anchor="start"><tspan x="40.0" dy="0.0">🔍 检测层 — 8 个 Detector</tspan></text>
<text x="241.0" y="368.0" font-family="'Cascadia', 'Noto Sans SC', 'Microsoft YaHei', sans-serif" font-size="12px" fill="#dc2626" text-anchor="middle"><tspan x="241.0" dy="0.0">A. 违禁关键词</tspan><tspan x="241.0" dy="15.0">text_prohibited.py</tspan></text>
<text x="547.0" y="368.0" font-family="'Cascadia', 'Noto Sans SC', 'Microsoft YaHei', sans-serif" font-size="12px" fill="#dc2626" text-anchor="middle"><tspan x="547.0" dy="0.0">B. 联系方式泄露</tspan><tspan x="547.0" dy="15.0">text_contact_leak.py</tspan></text>
<text x="853.0" y="368.0" font-family="'Cascadia', 'Noto Sans SC', 'Microsoft YaHei', sans-serif" font-size="12px" fill="#dc2626" text-anchor="middle"><tspan x="853.0" dy="0.0">C. HTML 结构</tspan><tspan x="853.0" dy="15.0">html_structure.py</tspan></text>
<text x="1159.0" y="368.0" font-family="'Cascadia', 'Noto Sans SC', 'Microsoft YaHei', sans-serif" font-size="12px" fill="#dc2626" text-anchor="middle"><tspan x="1159.0" dy="0.0">D. 品牌侵权</tspan><tspan x="1159.0" dy="15.0">brand_check.py</tspan></text>
<text x="241.0" y="516.0" font-family="'Cascadia', 'Noto Sans SC', 'Microsoft YaHei', sans-serif" font-size="12px" fill="#dc2626" text-anchor="middle"><tspan x="241.0" dy="0.0">E. 搜索作弊</tspan><tspan x="241.0" dy="15.0">search_cheating.py</tspan></text>
<text x="547.0" y="516.0" font-family="'Cascadia', 'Noto Sans SC', 'Microsoft YaHei', sans-serif" font-size="12px" fill="#dc2626" text-anchor="middle"><tspan x="547.0" dy="0.0">F. 图片分析</tspan><tspan x="547.0" dy="15.0">image_analysis.py</tspan></text>
<text x="853.0" y="516.0" font-family="'Cascadia', 'Noto Sans SC', 'Microsoft YaHei', sans-serif" font-size="12px" fill="#dc2626" text-anchor="middle"><tspan x="853.0" dy="0.0">G. 类目错放 ★</tspan><tspan x="853.0" dy="15.0">category_mismatch.py</tspan></text>
<text x="1159.0" y="516.0" font-family="'Cascadia', 'Noto Sans SC', 'Microsoft YaHei', sans-serif" font-size="12px" fill="#dc2626" text-anchor="middle"><tspan x="1159.0" dy="0.0">H. FDA 宣称</tspan><tspan x="1159.0" dy="15.0">fda_claims.py</tspan></text>
<text x="460.0" y="638.0" font-family="'Cascadia', 'Noto Sans SC', 'Microsoft YaHei', sans-serif" font-size="16px" fill="#6d28d9" text-anchor="start"><tspan x="460.0" dy="0.0">🤖 AI层 — 千问 qwen3.6-flash</tspan></text>
<text x="650.0" y="657.0" font-family="'Cascadia', 'Noto Sans SC', 'Microsoft YaHei', sans-serif" font-size="12px" fill="#6d28d9" text-anchor="middle"><tspan x="650.0" dy="0.0">utils/ai_client.py</tspan><tspan x="650.0" dy="15.0">统一 API 入口</tspan></text>
<text x="40.0" y="748.0" font-family="'Cascadia', 'Noto Sans SC', 'Microsoft YaHei', sans-serif" font-size="16px" fill="#b45309" text-anchor="start"><tspan x="40.0" dy="0.0">📁 数据层</tspan></text>
<text x="300.0" y="766.2" font-family="'Cascadia', 'Noto Sans SC', 'Microsoft YaHei', sans-serif" font-size="11px" fill="#b45309" text-anchor="middle"><tspan x="300.0" dy="0.0">📁 category_tree.xlsx</tspan><tspan x="300.0" dy="13.8">5813 条 4 级类目树</tspan></text>
<text x="680.0" y="766.2" font-family="'Cascadia', 'Noto Sans SC', 'Microsoft YaHei', sans-serif" font-size="11px" fill="#b45309" text-anchor="middle"><tspan x="680.0" dy="0.0">📁 category_mapping.xlsx</tspan><tspan x="680.0" dy="13.8">2029 条 ID→路径映射</tspan></text>
<text x="1060.0" y="766.2" font-family="'Cascadia', 'Noto Sans SC', 'Microsoft YaHei', sans-serif" font-size="11px" fill="#b45309" text-anchor="middle"><tspan x="1060.0" dy="0.0">📁 SAFE_BRANDS</tspan><tspan x="1060.0" dy="13.8">70 个合作品牌白名单</tspan></text>
<text x="310.0" y="863.0" font-family="'Cascadia', 'Noto Sans SC', 'Microsoft YaHei', sans-serif" font-size="16px" fill="#047857" text-anchor="start"><tspan x="310.0" dy="0.0">📊 输出层</tspan></text>
<text x="520.0" y="877.2" font-family="'Cascadia', 'Noto Sans SC', 'Microsoft YaHei', sans-serif" font-size="11px" fill="#047857" text-anchor="middle"><tspan x="520.0" dy="0.0">RiskEvaluator</tspan><tspan x="520.0" dy="13.8">风险聚合 + 分级</tspan></text>
<text x="520.0" y="929.2" font-family="'Cascadia', 'Noto Sans SC', 'Microsoft YaHei', sans-serif" font-size="11px" fill="#047857" text-anchor="middle"><tspan x="520.0" dy="0.0">OutputWriter</tspan><tspan x="520.0" dy="13.8">5 列 Excel 格式化</tspan></text>
<text x="520.0" y="988.1" font-family="'Cascadia', 'Noto Sans SC', 'Microsoft YaHei', sans-serif" font-size="11px" fill="#047857" text-anchor="middle"><tspan x="520.0" dy="0.0">📊 风险分析结果 Excel</tspan></text>
<path d="M 620.0 82.0 L 460.0 135.0" fill="none" stroke="#c2410c" stroke-width="2" stroke-linecap="round" stroke-linejoin="round"/>
<polygon points="460.0,135.0 469.8,137.0 466.6,127.5" fill="#c2410c" stroke="none"/>
<path d="M 780.0 82.0 L 940.0 135.0" fill="none" stroke="#c2410c" stroke-width="2" stroke-linecap="round" stroke-linejoin="round"/>
<polygon points="940.0,135.0 933.4,127.5 930.2,137.0" fill="#c2410c" stroke="none"/>
<path d="M 460.0 175.0 L 550.0 233.0" fill="none" stroke="#1e40af" stroke-width="2" stroke-linecap="round" stroke-linejoin="round"/>
<polygon points="550.0,233.0 545.4,224.1 540.0,232.5" fill="#1e40af" stroke="none"/>
<path d="M 940.0 175.0 L 750.0 233.0" fill="none" stroke="#1e40af" stroke-width="2" stroke-linecap="round" stroke-linejoin="round"/>
<polygon points="750.0,233.0 759.7,235.3 756.8,225.7" fill="#1e40af" stroke="none"/>
<path d="M 350.0 175.0 L 350.0 325.0 L 146.0 325.0 L 146.0 340.0" fill="none" stroke="#1e40af" stroke-width="1.5" stroke-linecap="round" stroke-linejoin="round"/>
<polygon points="146.0,340.0 151.0,331.3 141.0,331.3" fill="#1e40af" stroke="none"/>
<path d="M 350.0 175.0 L 350.0 325.0 L 452.0 325.0 L 452.0 340.0" fill="none" stroke="#1e40af" stroke-width="1.5" stroke-linecap="round" stroke-linejoin="round"/>
<polygon points="452.0,340.0 457.0,331.3 447.0,331.3" fill="#1e40af" stroke="none"/>
<path d="M 350.0 175.0 L 350.0 325.0 L 758.0 325.0 L 758.0 340.0" fill="none" stroke="#1e40af" stroke-width="1.5" stroke-linecap="round" stroke-linejoin="round"/>
<polygon points="758.0,340.0 763.0,331.3 753.0,331.3" fill="#1e40af" stroke="none"/>
<path d="M 350.0 175.0 L 350.0 325.0 L 1064.0 325.0 L 1064.0 340.0" fill="none" stroke="#1e40af" stroke-width="1.5" stroke-linecap="round" stroke-linejoin="round"/>
<polygon points="1064.0,340.0 1069.0,331.3 1059.0,331.3" fill="#1e40af" stroke="none"/>
<path d="M 350.0 175.0 L 350.0 325.0 L 146.0 325.0 L 146.0 488.0" fill="none" stroke="#1e40af" stroke-width="1.5" stroke-linecap="round" stroke-linejoin="round"/>
<polygon points="146.0,488.0 151.0,479.3 141.0,479.3" fill="#1e40af" stroke="none"/>
<path d="M 350.0 175.0 L 350.0 325.0 L 452.0 325.0 L 452.0 488.0" fill="none" stroke="#1e40af" stroke-width="1.5" stroke-linecap="round" stroke-linejoin="round"/>
<polygon points="452.0,488.0 457.0,479.3 447.0,479.3" fill="#1e40af" stroke="none"/>
<path d="M 350.0 175.0 L 350.0 325.0 L 758.0 325.0 L 758.0 488.0" fill="none" stroke="#1e40af" stroke-width="1.5" stroke-linecap="round" stroke-linejoin="round"/>
<polygon points="758.0,488.0 763.0,479.3 753.0,479.3" fill="#1e40af" stroke="none"/>
<path d="M 350.0 175.0 L 350.0 325.0 L 1064.0 325.0 L 1064.0 488.0" fill="none" stroke="#1e40af" stroke-width="1.5" stroke-linecap="round" stroke-linejoin="round"/>
<polygon points="1064.0,488.0 1069.0,479.3 1059.0,479.3" fill="#1e40af" stroke="none"/>
<path d="M 1050.0 175.0 L 1050.0 325.0 L 146.0 325.0 L 146.0 340.0" fill="none" stroke="#1e40af" stroke-width="1.5" stroke-linecap="round" stroke-linejoin="round"/>
<polygon points="146.0,340.0 151.0,331.3 141.0,331.3" fill="#1e40af" stroke="none"/>
<path d="M 1050.0 175.0 L 1050.0 325.0 L 452.0 325.0 L 452.0 340.0" fill="none" stroke="#1e40af" stroke-width="1.5" stroke-linecap="round" stroke-linejoin="round"/>
<polygon points="452.0,340.0 457.0,331.3 447.0,331.3" fill="#1e40af" stroke="none"/>
<path d="M 1050.0 175.0 L 1050.0 325.0 L 758.0 325.0 L 758.0 340.0" fill="none" stroke="#1e40af" stroke-width="1.5" stroke-linecap="round" stroke-linejoin="round"/>
<polygon points="758.0,340.0 763.0,331.3 753.0,331.3" fill="#1e40af" stroke="none"/>
<path d="M 1050.0 175.0 L 1050.0 325.0 L 1064.0 325.0 L 1064.0 340.0" fill="none" stroke="#1e40af" stroke-width="1.5" stroke-linecap="round" stroke-linejoin="round"/>
<polygon points="1064.0,340.0 1069.0,331.3 1059.0,331.3" fill="#1e40af" stroke="none"/>
<path d="M 1050.0 175.0 L 1050.0 325.0 L 146.0 325.0 L 146.0 488.0" fill="none" stroke="#1e40af" stroke-width="1.5" stroke-linecap="round" stroke-linejoin="round"/>
<polygon points="146.0,488.0 151.0,479.3 141.0,479.3" fill="#1e40af" stroke="none"/>
<path d="M 1050.0 175.0 L 1050.0 325.0 L 452.0 325.0 L 452.0 488.0" fill="none" stroke="#1e40af" stroke-width="1.5" stroke-linecap="round" stroke-linejoin="round"/>
<polygon points="452.0,488.0 457.0,479.3 447.0,479.3" fill="#1e40af" stroke="none"/>
<path d="M 1050.0 175.0 L 1050.0 325.0 L 758.0 325.0 L 758.0 488.0" fill="none" stroke="#1e40af" stroke-width="1.5" stroke-linecap="round" stroke-linejoin="round"/>
<polygon points="758.0,488.0 763.0,479.3 753.0,479.3" fill="#1e40af" stroke="none"/>
<path d="M 1050.0 175.0 L 1050.0 325.0 L 1064.0 325.0 L 1064.0 488.0" fill="none" stroke="#1e40af" stroke-width="1.5" stroke-linecap="round" stroke-linejoin="round"/>
<polygon points="1064.0,488.0 1069.0,479.3 1059.0,479.3" fill="#1e40af" stroke="none"/>
<path d="M 120.0 405.0 L 120.0 450.0 L 650.0 450.0 L 650.0 638.0" fill="none" stroke="#dc2626" stroke-width="1.5" stroke-linecap="round" stroke-linejoin="round"/>
<polygon points="650.0,638.0 655.0,629.3 645.0,629.3" fill="#dc2626" stroke="none"/>
<path d="M 1064.0 405.0 L 1064.0 450.0 L 650.0 450.0 L 650.0 638.0" fill="none" stroke="#dc2626" stroke-width="1.5" stroke-linecap="round" stroke-linejoin="round"/>
<polygon points="650.0,638.0 655.0,629.3 645.0,629.3" fill="#dc2626" stroke="none"/>
<path d="M 452.0 553.0 L 452.0 570.0 L 650.0 570.0 L 650.0 638.0" fill="none" stroke="#dc2626" stroke-width="1.5" stroke-linecap="round" stroke-linejoin="round"/>
<polygon points="650.0,638.0 655.0,629.3 645.0,629.3" fill="#dc2626" stroke="none"/>
<path d="M 758.0 553.0 L 758.0 570.0 L 650.0 570.0 L 650.0 638.0" fill="none" stroke="#dc2626" stroke-width="1.5" stroke-linecap="round" stroke-linejoin="round"/>
<polygon points="650.0,638.0 655.0,629.3 645.0,629.3" fill="#dc2626" stroke="none"/>
<path d="M 1064.0 553.0 L 1064.0 570.0 L 650.0 570.0 L 650.0 638.0" fill="none" stroke="#dc2626" stroke-width="1.5" stroke-linecap="round" stroke-linejoin="round"/>
<polygon points="650.0,638.0 655.0,629.3 645.0,629.3" fill="#dc2626" stroke="none"/>
<path d="M 452.0 553.0 L 452.0 680.0 L 680.0 680.0 L 680.0 748.0" fill="none" stroke="#dc2626" stroke-width="1.5" stroke-linecap="round" stroke-linejoin="round"/>
<polygon points="680.0,748.0 685.0,739.3 675.0,739.3" fill="#dc2626" stroke="none"/>
<path d="M 758.0 553.0 L 758.0 680.0 L 300.0 680.0 L 300.0 748.0" fill="none" stroke="#dc2626" stroke-width="1.5" stroke-linecap="round" stroke-linejoin="round"/>
<polygon points="300.0,748.0 305.0,739.3 295.0,739.3" fill="#dc2626" stroke="none"/>
<path d="M 1064.0 405.0 L 1064.0 600.0 L 1060.0 600.0 L 1060.0 748.0" fill="none" stroke="#dc2626" stroke-width="1.5" stroke-linecap="round" stroke-linejoin="round"/>
<polygon points="1060.0,748.0 1065.0,739.3 1055.0,739.3" fill="#dc2626" stroke="none"/>
<path d="M 146.0 405.0 L 146.0 820.0 L 520.0 820.0 L 520.0 858.0" fill="none" stroke="#dc2626" stroke-width="1.5" stroke-linecap="round" stroke-linejoin="round"/>
<polygon points="520.0,858.0 525.0,849.3 515.0,849.3" fill="#dc2626" stroke="none"/>
<path d="M 452.0 405.0 L 452.0 820.0 L 520.0 820.0 L 520.0 858.0" fill="none" stroke="#dc2626" stroke-width="1.5" stroke-linecap="round" stroke-linejoin="round"/>
<polygon points="520.0,858.0 525.0,849.3 515.0,849.3" fill="#dc2626" stroke="none"/>
<path d="M 758.0 405.0 L 758.0 820.0 L 520.0 820.0 L 520.0 858.0" fill="none" stroke="#dc2626" stroke-width="1.5" stroke-linecap="round" stroke-linejoin="round"/>
<polygon points="520.0,858.0 525.0,849.3 515.0,849.3" fill="#dc2626" stroke="none"/>
<path d="M 1064.0 405.0 L 1064.0 820.0 L 520.0 820.0 L 520.0 858.0" fill="none" stroke="#dc2626" stroke-width="1.5" stroke-linecap="round" stroke-linejoin="round"/>
<polygon points="520.0,858.0 525.0,849.3 515.0,849.3" fill="#dc2626" stroke="none"/>
<path d="M 146.0 553.0 L 146.0 820.0 L 520.0 820.0 L 520.0 858.0" fill="none" stroke="#dc2626" stroke-width="1.5" stroke-linecap="round" stroke-linejoin="round"/>
<polygon points="520.0,858.0 525.0,849.3 515.0,849.3" fill="#dc2626" stroke="none"/>
<path d="M 452.0 553.0 L 452.0 820.0 L 520.0 820.0 L 520.0 858.0" fill="none" stroke="#dc2626" stroke-width="1.5" stroke-linecap="round" stroke-linejoin="round"/>
<polygon points="520.0,858.0 525.0,849.3 515.0,849.3" fill="#dc2626" stroke="none"/>
<path d="M 758.0 553.0 L 758.0 820.0 L 520.0 820.0 L 520.0 858.0" fill="none" stroke="#dc2626" stroke-width="1.5" stroke-linecap="round" stroke-linejoin="round"/>
<polygon points="520.0,858.0 525.0,849.3 515.0,849.3" fill="#dc2626" stroke="none"/>
<path d="M 1064.0 553.0 L 1064.0 820.0 L 520.0 820.0 L 520.0 858.0" fill="none" stroke="#dc2626" stroke-width="1.5" stroke-linecap="round" stroke-linejoin="round"/>
<polygon points="520.0,858.0 525.0,849.3 515.0,849.3" fill="#dc2626" stroke="none"/>
<path d="M 520.0 898.0 L 520.0 914.0" fill="none" stroke="#047857" stroke-width="2" stroke-linecap="round" stroke-linejoin="round"/>
<polygon points="520.0,914.0 525.0,905.3 515.0,905.3" fill="#047857" stroke="none"/>
<path d="M 520.0 950.0 L 520.0 966.0" fill="none" stroke="#047857" stroke-width="2" stroke-linecap="round" stroke-linejoin="round"/>
<polygon points="520.0,966.0 525.0,957.3 515.0,957.3" fill="#047857" stroke="none"/>
</svg>